<svg xmlns="http://www.w3.org/2000/svg" viewBox="0 0 410.49 176.51"><defs><style>.cls-1{fill:#0504aa;stroke:#0504aa;stroke-miterlimit:10;stroke-width:0.75px;}</style></defs><g id="Layer_2" data-name="Layer 2"><g id="Layer_1-2" data-name="Layer 1"><path class="cls-1" d="M32.15,74.2V71.88h6.33V3.54H32.15V1.22H62.84c17.72,0,23.94,8.44,23.94,17.61,0,10.23-8,17.3-23.2,18.25l25.1,34.8h5.17V74.2H77.08L50.29,37.08h-.42v34.8h8V74.2ZM49.87,35.39h6.22c12.55,0,18.67-6.12,18.67-16.56,0-7.38-3.69-15.29-15.29-15.29h-9.6Z"/><path class="cls-1" d="M102.81,74.2V71.88h6.12L133.4.38h6.75l23.2,71.5h4.22V74.2H144.16V71.88H152l-8.65-27H121.06l-9.18,27H122V74.2Zm19-31.64h20.78l-10-30.9h-.21Z"/><path class="cls-1" d="M198.37,71.88H214c7,0,9-1.26,15.29-27h2.32V74.2H180.65V71.88H187V3.54h-6.33V1.22h28.26V3.54H198.37Z"/><path class="cls-1" d="M247.2,74.2V71.88h6.33V3.54H247.2V1.22h30.27c16.77,0,25.84,8,25.84,19.09s-8.44,18.46-25.74,18.46H264.92V71.88h9.7V74.2Zm17.72-37.75h9.91c11.39,0,16.45-3.49,16.45-16.14,0-9.92-4.53-16.77-15.5-16.77H264.92Z"/><path class="cls-1" d="M330.94,37.5V71.88h7V74.2H313.22V71.88h6.33V3.54h-6.33V1.22H337.9V3.54h-7V35.18h27.95V3.54h-7V1.22h24.68V3.54h-6.33V71.88h6.33V74.2H351.93V71.88h7V37.5Z"/><path class="cls-1" d="M18.09,172.13H33.7c7,0,9-1.27,15.3-27h2.32v29.32H.38v-2.32H6.7V103.78H.38v-2.32H28.64v2.32H18.09Z"/><path class="cls-1" d="M63.34,174.45v-2.32h6.12l24.46-71.51h6.75l23.21,71.51h4.22v2.32H104.68v-2.32h7.81l-8.65-27H81.58l-9.17,27H82.53v2.32Zm19-31.64H103.1l-10-30.91h-.21Z"/><path class="cls-1" d="M159.31,101.46v2.32h-7.59v53.05c0,12.87,7.28,17,13.92,17,10,0,17.09-6.75,17.09-17.71V103.78h-9.5v-2.32H192v2.32h-6.33V156.2c0,12.24-8.12,19.93-20.46,19.93-17.09,0-24.89-7.17-24.89-21.72V103.78H134v-2.32Z"/><path class="cls-1" d="M205.93,174.45v-2.32h6.33V103.78h-6.33v-2.32h30.69c17.72,0,23.94,8.44,23.94,17.62,0,10.23-8,17.29-23.2,18.24l25.1,34.81h5.17v2.32H250.86l-26.79-37.13h-.42v34.81h8v2.32Zm17.72-38.82h6.22c12.55,0,18.67-6.11,18.67-16.55,0-7.39-3.69-15.3-15.29-15.3h-9.6Z"/><path class="cls-1" d="M279.33,174.45v-2.32h6.33V103.78h-6.33v-2.32h53.58v23.42h-2.32c-5.69-19.73-7.38-21.1-12.65-21.1H297.05v31.64h8.23c5.27,0,7.8-3.27,9.91-14.55h2.32V152.3h-2.32c-2.11-11.29-4.64-14.56-9.91-14.56h-8.23v34.39h18.56c7.49,0,9.71-2.85,15.93-24.68h2.32v27Z"/><path class="cls-1" d="M358.85,105.89h-.21v66.24h8.86v2.32H348.73v-2.32h7V103.78h-7v-2.32H369l31,52.74h.21V103.78h-8.44v-2.32h18.35v2.32h-7v70.67h-3.58Z"/></g></g></svg>